<svg xmlns="http://www.w3.org/2000/svg" width="64" height="64" viewBox="0 0 64 64" color="#ffffff"><rect x="2" y="2" width="60" height="60" rx="14" fill="#2563EB"/><g transform="translate(3 1) scale(.88)" color="#ffffff"><mask id="vane"><rect width="64" height="64" fill="white"/><path d="M19.5 46.3C27.6 36 36.1 27.2 45.6 19.7" fill="none" stroke="black" stroke-width="2.4" stroke-linecap="round"/></mask><g mask="url(#vane)"><path fill="currentColor" d="M18.3 45.2C13.7 38.5 17.1 27 27.2 17.9C34.7 11.2 45.1 7.2 55 7C55 15.6 51.6 24.2 45.7 31L37.5 33.3L41.7 35.5C37.5 39.8 32.9 43 28.4 44.9L24 42.7L23.8 46.3C21.7 46.5 19.8 46.1 18.3 45.2Z"/><path d="M12 56C21.7 43.1 32.5 31.3 45.6 19.7" fill="none" stroke="currentColor" stroke-width="3.4" stroke-linecap="round"/></g></g></svg>