<svg xmlns="http://www.w3.org/2000/svg" width="24" height="24" viewBox="0 0 24 24" color="#ffffff"><g fill="none" stroke="currentColor" stroke-width="1.8" stroke-linecap="round" stroke-linejoin="round"><polygon points="8.500,5.938 9.837,5.343 10.129,3.197 13.871,3.197 14.163,5.343 15.500,5.938 16.684,6.798 18.688,5.978 20.560,9.219 18.847,10.545 19.000,12.000 18.847,13.455 20.560,14.781 18.688,18.022 16.684,17.202 15.500,18.062 14.163,18.657 13.871,20.803 10.129,20.803 9.837,18.657 8.500,18.062 7.316,17.202 5.312,18.022 3.440,14.781 5.153,13.455 5.000,12.000 5.153,10.545 3.440,9.219 5.312,5.978 7.316,6.798"/><circle cx="12" cy="12" r="2.7"/></g></svg>